<svg xmlns="http://www.w3.org/2000/svg" viewBox="0 0 1200 340" width="1200" height="340">
  <defs>
    <linearGradient id="bg" x1="0%" y1="0%" x2="100%" y2="100%">
      <stop offset="0%" stop-color="#0a0e1a"/>
      <stop offset="100%" stop-color="#111827"/>
    </linearGradient>
    <filter id="g1"><feGaussianBlur stdDeviation="8" result="b"/><feComposite in="SourceGraphic" in2="b" operator="over"/></filter>
    <filter id="g2"><feGaussianBlur stdDeviation="4" result="b"/><feComposite in="SourceGraphic" in2="b" operator="over"/></filter>
  </defs>

  <rect width="1200" height="340" rx="12" fill="url(#bg)"/>

  <!-- Grid -->
  <g opacity="0.04">
    <line x1="0" y1="40" x2="1200" y2="40" stroke="#00ffcc"/><line x1="0" y1="80" x2="1200" y2="80" stroke="#00ffcc"/>
    <line x1="0" y1="120" x2="1200" y2="120" stroke="#00ffcc"/><line x1="0" y1="160" x2="1200" y2="160" stroke="#00ffcc"/>
    <line x1="0" y1="200" x2="1200" y2="200" stroke="#ff0040"/><line x1="0" y1="240" x2="1200" y2="240" stroke="#00ffcc"/>
    <line x1="0" y1="280" x2="1200" y2="280" stroke="#00ffcc"/><line x1="0" y1="320" x2="1200" y2="320" stroke="#00ffcc"/>
  </g>

  <!-- Owl eyes left -->
  <path d="M85,135 L130,110 L155,135 L130,165 L85,155 Z" fill="#0a0a15"/>
  <ellipse cx="120" cy="138" rx="28" ry="19" fill="#ff0040" filter="url(#g1)"/>
  <ellipse cx="124" cy="136" rx="12" ry="10" fill="#0a0e1a"/>
  <ellipse cx="128" cy="133" rx="4" ry="3" fill="#ff6688"/>
  <!-- Owl eyes right -->
  <path d="M255,135 L210,110 L185,135 L210,165 L255,155 Z" fill="#0a0a15"/>
  <ellipse cx="220" cy="138" rx="28" ry="19" fill="#00ffcc" filter="url(#g1)"/>
  <ellipse cx="224" cy="136" rx="12" ry="10" fill="#0a0e1a"/>
  <ellipse cx="228" cy="133" rx="4" ry="3" fill="#66ffee"/>
  <!-- Angry brows -->
  <line x1="90" y1="115" x2="148" y2="118" stroke="#ff0040" stroke-width="3" stroke-linecap="round" opacity="0.5"/>
  <line x1="250" y1="115" x2="192" y2="118" stroke="#00ffcc" stroke-width="3" stroke-linecap="round" opacity="0.5"/>
  <!-- Beak -->
  <polygon points="170,160 160,180 170,188 180,180" fill="#ff8c00"/>
  <!-- Head outline -->
  <path d="M170,80 L260,125 L268,190 L235,235 L170,248 L105,235 L72,190 L80,125 Z" fill="none" stroke="#1a1a3e" stroke-width="1"/>
  <!-- Horns -->
  <polygon points="100,120 75,50 140,100" fill="#16213e" stroke="#00ffcc" stroke-width="1" opacity="0.6"/>
  <polygon points="240,120 265,50 200,100" fill="#16213e" stroke="#ff0040" stroke-width="1" opacity="0.6"/>

  <!-- Title -->
  <text x="340" y="145" font-family="'SF Pro Display','Inter','Segoe UI',Arial,sans-serif" font-size="88" font-weight="900" fill="white" letter-spacing="-3">NightOwl</text>

  <!-- Subtitle -->
  <text x="345" y="185" font-family="'SF Mono','Fira Code',monospace" font-size="20" fill="#00ffcc" filter="url(#g2)" letter-spacing="1">PENETRATION TESTING FRAMEWORK</text>

  <!-- Stats pills -->
  <rect x="345" y="210" width="100" height="30" rx="6" fill="#ff0040" opacity="0.15"/>
  <text x="361" y="230" font-family="'SF Mono',monospace" font-size="13" font-weight="700" fill="#ff0040">57 modules</text>

  <rect x="460" y="210" width="80" height="30" rx="6" fill="#00ffcc" opacity="0.15"/>
  <text x="472" y="230" font-family="'SF Mono',monospace" font-size="13" font-weight="700" fill="#00ffcc">full auto</text>

  <rect x="555" y="210" width="100" height="30" rx="6" fill="#f59e0b" opacity="0.15"/>
  <text x="564" y="230" font-family="'SF Mono',monospace" font-size="13" font-weight="700" fill="#f59e0b">open source</text>

  <rect x="670" y="210" width="110" height="30" rx="6" fill="#a855f7" opacity="0.15"/>
  <text x="679" y="230" font-family="'SF Mono',monospace" font-size="13" font-weight="700" fill="#a855f7">OWASP Top 10</text>

  <!-- Terminal line -->
  <rect x="345" y="260" width="800" height="55" rx="8" fill="#060810" stroke="#1a1a3e" stroke-width="1"/>
  <circle cx="362" cy="275" r="4" fill="#ff4444"/>
  <circle cx="376" cy="275" r="4" fill="#ffaa00"/>
  <circle cx="390" cy="275" r="4" fill="#22c55e"/>
  <text x="362" y="303" font-family="'SF Mono','Fira Code',monospace" font-size="14" fill="#555">$</text>
  <text x="378" y="303" font-family="'SF Mono','Fira Code',monospace" font-size="14" fill="#00ffcc" font-weight="700">nightowl full</text>
  <text x="515" y="303" font-family="'SF Mono','Fira Code',monospace" font-size="14" fill="#ccc">https://target.com</text>
  <text x="710" y="303" font-family="'SF Mono','Fira Code',monospace" font-size="14" fill="#555">--mode auto</text>

  <!-- Corner targeting brackets -->
  <path d="M8,8 L8,40 M8,8 L40,8" fill="none" stroke="#00ffcc" stroke-width="2" opacity="0.15"/>
  <path d="M1192,8 L1192,40 M1192,8 L1160,8" fill="none" stroke="#ff0040" stroke-width="2" opacity="0.15"/>
  <path d="M8,332 L8,300 M8,332 L40,332" fill="none" stroke="#00ffcc" stroke-width="2" opacity="0.15"/>
  <path d="M1192,332 L1192,300 M1192,332 L1160,332" fill="none" stroke="#ff0040" stroke-width="2" opacity="0.15"/>
</svg>
