<svg xmlns="http://www.w3.org/2000/svg" viewBox="0 0 1050 680" width="1050" height="680">
  <defs>
    <linearGradient id="tbg" x1="0%" y1="0%" x2="0%" y2="100%">
      <stop offset="0%" stop-color="#1a1b26"/>
      <stop offset="100%" stop-color="#0f1019"/>
    </linearGradient>
  </defs>

  <!-- Window -->
  <rect width="1050" height="680" rx="12" fill="url(#tbg)" stroke="#2a2a3e" stroke-width="1"/>
  <rect width="1050" height="38" rx="12" fill="#16161e"/>
  <rect y="24" width="1050" height="14" fill="#16161e"/>
  <circle cx="22" cy="19" r="6" fill="#ff5f57"/>
  <circle cx="42" cy="19" r="6" fill="#febc2e"/>
  <circle cx="62" cy="19" r="6" fill="#28c840"/>
  <text x="525" y="24" text-anchor="middle" font-family="'SF Mono','Fira Code',monospace" font-size="13" fill="#565f89">nightowl - zsh</text>

  <g font-family="'SF Mono','Menlo','Fira Code',monospace" font-size="13">
    <text x="20" y="68" fill="#565f89">$</text>
    <text x="36" y="68" fill="#7aa2f7" font-weight="700">nightowl full</text>
    <text x="166" y="68" fill="#c0caf5">https://target.example.com</text>
    <text x="392" y="68" fill="#565f89">--mode auto</text>

    <text x="20" y="98" fill="#00ffcc" font-size="11">    _   _ _       _     _    ___           _</text>
    <text x="20" y="112" fill="#00ffcc" font-size="11">   | \ | (_) __ _| |__ | |_ / _ \__      _| |</text>
    <text x="20" y="126" fill="#00ffcc" font-size="11">   |  \| | |/ _` | '_ \| __| | | \ \ /\ / / |</text>
    <text x="20" y="140" fill="#00ffcc" font-size="11">   | |\  | | (_| | | | | |_| |_| |\ V  V /| |</text>
    <text x="20" y="154" fill="#00ffcc" font-size="11">   |_| \_|_|\__, |_| |_|\__|\___/  \_/\_/ |_|</text>
    <text x="20" y="168" fill="#00ffcc" font-size="11">            |___/</text>
    <text x="20" y="186" fill="#565f89" font-size="11">   Advanced Penetration Testing Framework v1.0.0</text>

    <text x="20" y="214" fill="#7aa2f7">[*]</text><text x="52" y="214" fill="#c0caf5"> Target: https://target.example.com</text>
    <text x="20" y="232" fill="#7aa2f7">[*]</text><text x="52" y="232" fill="#c0caf5"> Mode: auto | Modules: 72 loaded</text>
    <text x="20" y="250" fill="#e0af68">[!]</text><text x="52" y="250" fill="#e0af68"> Full pentest mode - all stages will be executed</text>

    <text x="20" y="278" fill="#00ffcc" font-weight="700">--- Stage: RECON ---</text>
    <text x="20" y="296" fill="#9ece6a">[+]</text><text x="52" y="296" fill="#c0caf5"> [dns-enum] Found 12 DNS records</text>
    <text x="20" y="314" fill="#9ece6a">[+]</text><text x="52" y="314" fill="#c0caf5"> [subdomain-enum] Discovered 8 subdomains</text>
    <text x="20" y="332" fill="#9ece6a">[+]</text><text x="52" y="332" fill="#c0caf5"> [port-scanner] 23 open ports on target</text>
    <text x="20" y="350" fill="#9ece6a">[+]</text><text x="52" y="350" fill="#c0caf5"> [tech-detect] WordPress 6.4.2 | PHP 8.1 | Apache 2.4</text>
    <text x="20" y="368" fill="#9ece6a">[+]</text><text x="52" y="368" fill="#c0caf5"> [waf-detect] Cloudflare WAF detected (confidence: high)</text>
    <text x="20" y="386" fill="#9ece6a">[+]</text><text x="52" y="386" fill="#c0caf5"> [js-analyzer] 3 API keys found in JavaScript files</text>

    <text x="20" y="414" fill="#00ffcc" font-weight="700">--- Stage: SCAN ---</text>
    <text x="20" y="432" fill="#f7768e">[!]</text><text x="52" y="432" fill="#f7768e" font-weight="700"> [sqli-scanner] SQL Injection in /api/users?id=</text>
    <text x="446" y="432" fill="#f7768e">[CRITICAL]</text>
    <text x="20" y="450" fill="#f7768e">[!]</text><text x="52" y="450" fill="#f7768e" font-weight="700"> [ssti-scanner] SSTI (Jinja2) in /search?q=</text>
    <text x="392" y="450" fill="#f7768e">[CRITICAL]</text>
    <text x="20" y="468" fill="#ff9e64">[!]</text><text x="52" y="468" fill="#ff9e64"> [jwt-attack] JWT uses alg:none - token forgery</text>
    <text x="430" y="468" fill="#ff9e64">[HIGH]</text>
    <text x="20" y="486" fill="#ff9e64">[!]</text><text x="52" y="486" fill="#ff9e64"> [xxe-scanner] XXE via /api/import (file read)</text>
    <text x="420" y="486" fill="#ff9e64">[HIGH]</text>
    <text x="20" y="504" fill="#e0af68">[!]</text><text x="52" y="504" fill="#e0af68"> [cors-checker] Wildcard CORS with credentials</text>
    <text x="430" y="504" fill="#e0af68">[MEDIUM]</text>
    <text x="20" y="522" fill="#e0af68">[!]</text><text x="52" y="522" fill="#e0af68"> [open-redirect] Redirect in /login?next=</text>
    <text x="380" y="522" fill="#e0af68">[MEDIUM]</text>

    <rect x="20" y="546" width="1010" height="115" rx="6" fill="#1a1b2e" stroke="#2a2a3e"/>
    <text x="40" y="572" fill="#c0caf5" font-weight="700" font-size="14">Scan Complete</text>
    <text x="180" y="572" fill="#565f89">|</text>
    <text x="195" y="572" fill="#c0caf5">47.3s</text>
    <text x="242" y="572" fill="#565f89">|</text>
    <text x="257" y="572" fill="#c0caf5">59 findings</text>
    <text x="355" y="572" fill="#565f89">|</text>
    <text x="370" y="572" fill="#c0caf5">target.example.com</text>

    <text x="40" y="600" fill="#f7768e" font-weight="700">CRITICAL</text>
    <rect x="120" y="589" width="120" height="14" rx="3" fill="#f7768e" opacity="0.15"/>
    <rect x="120" y="589" width="60" height="14" rx="3" fill="#f7768e"/>
    <text x="130" y="600" fill="#1a1b26" font-size="11" font-weight="700">4</text>

    <text x="260" y="600" fill="#ff9e64" font-weight="700">HIGH</text>
    <rect x="310" y="589" width="120" height="14" rx="3" fill="#ff9e64" opacity="0.15"/>
    <rect x="310" y="589" width="90" height="14" rx="3" fill="#ff9e64"/>
    <text x="320" y="600" fill="#1a1b26" font-size="11" font-weight="700">7</text>

    <text x="450" y="600" fill="#e0af68" font-weight="700">MEDIUM</text>
    <rect x="525" y="589" width="120" height="14" rx="3" fill="#e0af68" opacity="0.15"/>
    <rect x="525" y="589" width="75" height="14" rx="3" fill="#e0af68"/>
    <text x="535" y="600" fill="#1a1b26" font-size="11" font-weight="700">12</text>

    <text x="665" y="600" fill="#7aa2f7" font-weight="700">LOW</text>
    <rect x="705" y="589" width="120" height="14" rx="3" fill="#7aa2f7" opacity="0.15"/>
    <rect x="705" y="589" width="50" height="14" rx="3" fill="#7aa2f7"/>
    <text x="715" y="600" fill="#1a1b26" font-size="11" font-weight="700">5</text>

    <text x="845" y="600" fill="#565f89" font-weight="700">INFO</text>
    <rect x="885" y="589" width="120" height="14" rx="3" fill="#565f89" opacity="0.15"/>
    <rect x="885" y="589" width="110" height="14" rx="3" fill="#565f89" opacity="0.4"/>
    <text x="895" y="600" fill="#c0caf5" font-size="11" font-weight="700">31</text>

    <text x="40" y="644" fill="#9ece6a" font-weight="700">[+]</text>
    <text x="68" y="644" fill="#9ece6a"> Report: ./reports/nightowl-report-20260326-142315.html</text>
  </g>
</svg>
